<svg width="528" height="145" viewBox="0 0 528 145" fill="none" xmlns="http://www.w3.org/2000/svg">
<path d="M410.4 2.00551C407.6 3.20551 405.333 4.80551 405.333 5.73884C405.333 6.80551 404.267 7.20551 402.667 6.80551C400.933 6.40551 399.733 6.93884 399.2 8.40551C397.6 12.4055 400.667 13.2055 405.2 9.87218C407.6 8.13884 411.333 5.87218 413.467 5.07218C415.6 4.13884 417.333 2.53884 417.333 1.60551C417.333 -0.661157 416.8 -0.527824 410.4 2.00551Z" fill="black"/>
<path d="M419.067 4.9389C415.2 6.27223 409.6 9.07224 406.533 11.2056C399.867 15.7389 392.667 26.5389 391.333 33.6056L390.4 38.5389L387.867 34.4056C385.067 29.8722 382.667 30.1389 382.667 34.9389C382.667 38.2722 385.867 41.7389 387.733 40.5389C388.4 40.1389 389.333 43.3389 389.733 47.7389C394.667 94.0056 450.933 134.806 494 123.206C502.533 120.939 505.6 119.339 512.4 113.339C518.533 108.006 516.267 111.339 507.467 120.672C502.267 126.272 501.6 128.406 506.4 124.406C507.6 123.339 511.2 120.272 514.267 117.606C521.333 111.739 526.533 101.206 527.333 91.6056C527.6 87.6056 527.6 85.6056 527.2 87.0722C525.2 94.4056 522.4 102.406 521.467 102.939C520.933 103.339 521.467 100.539 522.8 96.6722C525.467 88.9389 526.267 81.6056 524 85.0722C523.333 86.1389 522.667 88.1389 522.667 89.4722C522.667 93.6056 517.333 103.339 512.267 108.406C503.6 117.072 495.867 120.139 481.2 120.806C465.733 121.472 457.6 119.472 441.467 110.939C435.467 107.739 429.867 105.339 429.333 105.739C428.8 106.139 427.6 105.472 426.667 104.406C425.733 103.339 425.467 102.406 426 102.406C426.533 102.406 422.8 98.0056 417.733 92.5389C392.667 65.7389 388.933 33.3389 408.933 15.7389C412.267 12.8056 415.733 10.4056 416.533 10.5389C417.467 10.5389 417.333 10.9389 416.267 11.3389C415.467 11.6056 414.933 12.5389 415.467 13.2056C416.533 15.0722 421.333 14.6722 422.133 12.5389C422.533 11.6056 426.133 10.0056 430.133 9.07224C434 8.1389 437.333 6.9389 437.333 6.5389C437.333 6.1389 441.733 5.87223 446.933 6.00557C452.267 6.1389 458 6.27223 459.733 6.40557C461.467 6.40557 462.533 6.9389 462.133 7.47224C461.867 8.00557 463.6 8.5389 466.133 8.5389C472.133 8.5389 469.333 6.9389 458.533 4.40557C446.667 1.60557 427.733 1.87223 419.067 4.9389ZM419.333 97.0722C422.133 100.006 424.267 102.406 423.867 102.406C423.467 102.406 420.8 100.006 418 97.0722C415.2 94.1389 413.067 91.7389 413.467 91.7389C413.867 91.7389 416.533 94.1389 419.333 97.0722Z" fill="black"/>
<path d="M473.333 10.4055C475.067 11.6055 475.067 11.7389 473.333 11.7389C472.267 11.7389 476.4 14.8055 482.667 18.5389C488.933 22.2722 495.067 26.2722 496.4 27.4722C497.6 28.5389 498.933 29.2055 499.333 28.8055C499.733 28.4055 496.133 25.4722 491.333 22.1389C486.667 18.8055 483.2 15.7389 483.6 15.2055C484.133 14.6722 483.467 14.6722 482.133 15.2055C480.4 15.8722 479.867 15.7389 480.533 14.6722C481.067 13.7389 479.733 12.4055 477.467 11.0722C473.067 8.80552 470.133 8.40552 473.333 10.4055ZM478.667 13.0722C479.733 13.7389 480.133 14.4055 479.333 14.4055C478.667 14.4055 477.067 13.7389 476 13.0722C474.933 12.4055 474.667 11.7389 475.333 11.7389C476.133 11.7389 477.6 12.4055 478.667 13.0722Z" fill="black"/>
<path d="M392 13.7389C390.4 15.6056 391.333 21.0723 393.2 21.0723C395.867 21.0723 397.467 17.2056 396 14.5389C394.267 11.2056 394.133 11.2056 392 13.7389Z" fill="black"/>
<path d="M372.4 19.0722C370.133 21.6055 370.267 23.7389 372.533 23.7389C373.6 23.7389 375.333 24.1389 376.4 24.5389C379.067 25.4722 380.933 19.8722 378.533 18.2722C376 16.6722 374.267 16.9389 372.4 19.0722Z" fill="black"/>
<path d="M385.867 21.7389C383.6 25.0722 383.733 25.3389 386.533 28.1389C389.067 30.6722 389.6 30.8056 390.667 29.0722C392.533 26.1389 392.267 21.6056 390.133 19.8722C388.533 18.5389 387.733 18.9389 385.867 21.7389Z" fill="black"/>
<path d="M368 27.6056C368 28.2722 367.6 29.7389 367.2 30.8056C366.267 33.2056 373.467 34.9389 374.933 32.6722C377.333 28.9389 376 26.4056 372 26.4056C369.867 26.4056 368 26.9389 368 27.6056Z" fill="black"/>
<path d="M364.933 39.3388C364.133 43.7388 363.733 43.2055 369.067 44.4055C373.067 45.2055 373.333 45.0722 373.333 41.3388C373.333 34.9388 366.133 33.3388 364.933 39.3388Z" fill="black"/>
<path d="M380.8 40.6722C379.067 42.4055 380.133 45.3389 383.467 48.4055C386.4 51.2055 386.533 51.4722 384.133 50.8055C378.267 49.3389 381.733 58.5389 387.6 60.2722C390.267 61.0722 390.4 60.9389 389.2 56.1389C388.533 53.3389 388 49.2055 388 46.9389C388 43.8722 387.2 42.4055 384.8 41.3389C383.067 40.5389 381.2 40.2722 380.8 40.6722Z" fill="black"/>
<path d="M364.533 51.6056C364.8 56.6723 365.6 57.3389 369.867 56.2723C372.667 55.6056 373.333 54.6723 373.333 51.6056C373.333 48.1389 372.933 47.7389 368.8 47.7389C364.667 47.7389 364.267 48.0056 364.533 51.6056Z" fill="black"/>
<path d="M365.333 61.739C365.333 62.8056 365.867 63.739 366.4 63.739C367.067 63.739 367.467 65.0723 367.467 66.6723C367.333 69.339 367.867 69.6056 371.333 69.339C376.4 68.6723 376.4 68.6723 375.333 63.8723C374.533 60.2723 373.867 59.739 369.867 59.739C366.667 59.739 365.333 60.4056 365.333 61.739Z" fill="black"/>
<path d="M384.267 65.2056C385.467 68.6723 391.333 72.8056 392.8 71.339C394.267 69.8723 390.133 62.539 387.6 61.8723C382.933 60.6723 382.667 60.8056 384.267 65.2056Z" fill="black"/>
<path d="M371.067 72.6722C368.667 73.6055 368.933 77.0722 371.2 77.0722C372.4 77.0722 372.8 78.0055 372.4 79.7389C371.867 81.8722 372.4 82.4055 374.8 82.4055C380.4 82.4055 381.467 80.8055 379.733 76.0055C378.133 71.8722 375.467 70.8055 371.067 72.6722Z" fill="black"/>
<path d="M388.267 75.8722C389.6 78.8055 391.333 80.5389 394 81.3389C396.133 81.8722 398.133 82.1389 398.4 81.8722C399.467 80.8055 394.533 73.0722 392.8 73.0722C391.733 73.0722 389.867 72.6722 388.667 72.2722C386.8 71.4722 386.667 71.8722 388.267 75.8722Z" fill="black"/>
<path d="M378.4 85.2056C374.8 86.5389 374.533 90.4056 378 90.4056C378.933 90.4056 379.6 91.4723 379.467 92.6723C379.333 95.6056 382.667 96.2723 385.867 94.0056C388.4 92.1389 388.4 92.0056 385.867 88.0056C384.533 85.6056 383.067 83.7389 382.667 83.8723C382.267 83.8723 380.4 84.5389 378.4 85.2056Z" fill="black"/>
<path d="M394.133 84.8056C393.733 85.6056 394.4 87.4723 395.733 89.0723C397.467 91.2056 399.2 91.8723 402.533 91.4723C406.933 91.0723 406.933 91.0723 404.533 88.1389C401.733 84.8056 395.333 82.8056 394.133 84.8056Z" fill="black"/>
<path d="M400.8 94.1389C400.4 94.8056 401.867 96.9389 404 99.0723C407.067 102.006 408.533 102.539 411.467 101.872L415.067 100.939L411.2 96.9389C407.733 93.2056 402.267 91.7389 400.8 94.1389Z" fill="black"/>
<path d="M387.2 97.4722C385.867 98.1388 384.533 98.9388 384.267 99.0722C383.067 100.006 386 103.739 387.467 103.206C388.533 102.806 388.933 103.206 388.533 104.272C387.2 107.606 391.2 109.072 394.533 106.539C397.6 104.272 397.6 104.006 395.467 100.672C392.667 96.4055 390.533 95.6055 387.2 97.4722Z" fill="black"/>
<path d="M410.933 103.606C408.4 105.206 415.2 110.406 419.867 110.406C422.267 110.406 422.8 110.806 421.6 111.606C418.667 113.472 426.4 118.806 430.533 117.739C433.2 117.072 433.467 117.206 432.267 118.806C430.933 120.272 431.6 120.939 435.867 122.406C438.667 123.339 441.733 123.606 442.533 123.206C443.333 122.672 443.733 123.072 443.2 124.139C442.133 127.072 450 129.472 453.467 127.339C457.2 125.072 456.667 124.006 451.067 122.939C448.267 122.406 445.2 121.206 444.267 120.139C443.333 119.206 441.333 118.406 440 118.406C438.667 118.406 435.867 116.939 433.733 115.206C431.733 113.472 428.667 111.739 427.067 111.206C425.333 110.672 424 109.606 424 108.939C424 107.606 416.133 102.406 414 102.406C413.333 102.406 411.867 102.939 410.933 103.606Z" fill="black"/>
<path d="M427.333 103.739C427.733 104.406 428.4 105.072 428.8 105.072C429.067 105.072 429.333 104.406 429.333 103.739C429.333 102.939 428.667 102.406 427.867 102.406C427.2 102.406 426.933 102.939 427.333 103.739Z" fill="black"/>
<path d="M396.667 109.472C394 111.472 394.933 114.406 398.133 114.406C399.2 114.406 399.867 114.939 399.333 115.606C398 117.872 403.867 120.139 406.133 118.272C408.667 116.139 408.533 113.606 405.333 110.406C402.267 107.339 400.133 107.072 396.667 109.472Z" fill="black"/>
<path d="M409.467 118.939C406.533 122.139 406.533 125.072 409.6 125.072C410.4 125.072 412.267 126.139 413.6 127.339C416 129.472 416.267 129.472 419.333 125.739C421.6 122.806 422 121.339 420.933 120.006C420.267 119.072 418.8 118.539 417.867 118.939C416.8 119.339 416.133 118.939 416.4 118.139C416.933 115.206 412.533 115.739 409.467 118.939Z" fill="black"/>
<path d="M422.8 126.939C419.6 130.272 420.133 133.872 423.467 132.539C424.533 132.139 425.333 132.406 425.333 132.939C425.333 134.806 429.6 136.006 431.067 134.539C431.733 133.872 432.533 131.739 432.667 129.739C433.067 127.072 432.4 126.006 429.867 124.939C425.6 123.339 426.267 123.206 422.8 126.939ZM430 127.472C429.6 127.872 428.533 127.472 427.6 126.539C426.4 125.206 426.533 125.072 428.4 125.872C429.733 126.272 430.4 127.072 430 127.472Z" fill="black"/>
<path d="M456.4 126.539C455.467 127.472 454.667 128.806 454.667 129.339C454.667 131.206 463.6 130.406 465.333 128.406C466.667 126.806 466.667 126.406 465.2 126.406C464.133 126.406 462.133 126.006 460.667 125.606C459.2 125.206 457.2 125.739 456.4 126.539Z" fill="black"/>
<path d="M494.4 125.872C494 126.272 491.467 126.806 488.8 127.072C483.867 127.472 480 129.739 480 132.006C480 133.872 488.267 132.139 489.6 130.006C490.4 128.806 490.667 128.806 490.667 130.006C490.667 130.939 491.467 131.739 492.533 131.739C494.667 131.739 498.667 128.272 498.667 126.272C498.667 124.939 495.6 124.672 494.4 125.872Z" fill="black"/>
<path d="M468.8 129.872C467.6 133.072 467.6 133.072 472.4 133.072C476.533 133.072 480 131.206 480 128.806C480 126.672 469.6 127.606 468.8 129.872Z" fill="black"/>
<path d="M435.6 133.072C433.2 136.939 433.2 137.072 435.6 137.872C436.933 138.272 439.067 139.206 440.267 139.872C443.867 141.739 444.933 141.339 445.6 137.739C446 135.872 445.733 134.406 444.8 134.406C444 134.406 444.133 133.872 445.067 133.206C446.4 132.406 445.733 131.739 442.533 130.539C440.267 129.739 438.133 129.072 438.133 129.072C438 129.072 436.8 130.939 435.6 133.072Z" fill="black"/>
<path d="M448.933 136.539C448.4 137.072 448 138.672 448 140.139C448 142.006 448.667 142.539 450.667 142.006C452 141.606 453.467 142.006 453.733 142.806C454 143.606 455.2 143.872 456.4 143.339C459.067 142.406 459.467 137.072 457.067 137.072C456.133 137.072 454.133 136.672 452.667 136.272C451.2 135.872 449.467 136.006 448.933 136.539Z" fill="black"/>
<path d="M123.043 115.526L120.096 125.072H116.967L121.408 112.986H123.392L123.043 115.526ZM125.483 125.072L122.528 115.526L122.146 112.986H124.155L128.621 125.072H125.483ZM125.367 120.565V122.814H119.167V120.565H125.367ZM134.44 119.934H131.327L131.311 118.025H133.834C134.288 118.025 134.65 117.975 134.921 117.875C135.193 117.77 135.389 117.618 135.511 117.419C135.638 117.22 135.702 116.971 135.702 116.672C135.702 116.329 135.638 116.052 135.511 115.842C135.383 115.632 135.181 115.479 134.905 115.385C134.634 115.286 134.282 115.236 133.851 115.236H132.423V125.072H129.509V112.986H133.851C134.598 112.986 135.264 113.056 135.851 113.194C136.438 113.327 136.936 113.531 137.345 113.808C137.76 114.085 138.076 114.433 138.292 114.854C138.507 115.269 138.615 115.759 138.615 116.323C138.615 116.816 138.51 117.278 138.3 117.709C138.09 118.141 137.738 118.493 137.246 118.764C136.759 119.029 136.092 119.168 135.245 119.179L134.44 119.934ZM134.324 125.072H130.622L131.618 122.831H134.324C134.722 122.831 135.04 122.77 135.278 122.648C135.522 122.521 135.696 122.355 135.801 122.15C135.912 121.94 135.967 121.708 135.967 121.453C135.967 121.143 135.915 120.875 135.81 120.648C135.71 120.421 135.549 120.247 135.328 120.125C135.107 119.998 134.811 119.934 134.44 119.934H131.991L132.008 118.025H134.938L135.619 118.789C136.427 118.755 137.066 118.869 137.536 119.129C138.012 119.389 138.352 119.732 138.557 120.158C138.762 120.584 138.864 121.03 138.864 121.495C138.864 122.286 138.693 122.947 138.35 123.479C138.012 124.01 137.506 124.408 136.831 124.674C136.155 124.939 135.32 125.072 134.324 125.072ZM146.103 112.986V125.072H143.189V112.986H146.103ZM149.738 112.986V115.236H139.636V112.986H149.738ZM160.969 118.789V119.278C160.969 120.202 160.839 121.033 160.579 121.769C160.325 122.499 159.962 123.124 159.492 123.645C159.021 124.159 158.465 124.555 157.823 124.832C157.181 125.103 156.473 125.238 155.698 125.238C154.918 125.238 154.204 125.103 153.557 124.832C152.915 124.555 152.356 124.159 151.88 123.645C151.41 123.124 151.044 122.499 150.784 121.769C150.53 121.033 150.402 120.202 150.402 119.278V118.789C150.402 117.864 150.53 117.034 150.784 116.298C151.044 115.562 151.407 114.937 151.872 114.422C152.342 113.902 152.898 113.507 153.54 113.235C154.188 112.959 154.901 112.82 155.682 112.82C156.456 112.82 157.165 112.959 157.807 113.235C158.454 113.507 159.013 113.902 159.483 114.422C159.954 114.937 160.319 115.562 160.579 116.298C160.839 117.034 160.969 117.864 160.969 118.789ZM158.014 119.278V118.772C158.014 118.174 157.962 117.649 157.856 117.195C157.757 116.736 157.607 116.351 157.408 116.041C157.209 115.731 156.963 115.499 156.669 115.344C156.382 115.183 156.052 115.103 155.682 115.103C155.294 115.103 154.957 115.183 154.669 115.344C154.381 115.499 154.14 115.731 153.947 116.041C153.753 116.351 153.606 116.736 153.507 117.195C153.413 117.649 153.366 118.174 153.366 118.772V119.278C153.366 119.87 153.413 120.396 153.507 120.855C153.606 121.309 153.753 121.694 153.947 122.009C154.146 122.325 154.389 122.563 154.677 122.723C154.971 122.884 155.311 122.964 155.698 122.964C156.069 122.964 156.398 122.884 156.686 122.723C156.974 122.563 157.215 122.325 157.408 122.009C157.607 121.694 157.757 121.309 157.856 120.855C157.962 120.396 158.014 119.87 158.014 119.278ZM167.386 119.287H165.302V117.826H166.846C167.206 117.826 167.496 117.768 167.718 117.651C167.939 117.53 168.102 117.358 168.208 117.137C168.313 116.91 168.365 116.644 168.365 116.34C168.365 116.113 168.304 115.903 168.183 115.709C168.066 115.515 167.887 115.36 167.643 115.244C167.4 115.128 167.09 115.07 166.713 115.07C166.426 115.07 166.163 115.117 165.925 115.211C165.687 115.305 165.499 115.443 165.36 115.626C165.222 115.803 165.153 116.024 165.153 116.29H162.248C162.248 115.748 162.367 115.264 162.604 114.837C162.842 114.411 163.166 114.049 163.576 113.75C163.991 113.451 164.467 113.224 165.003 113.069C165.546 112.909 166.116 112.829 166.713 112.829C167.405 112.829 168.03 112.903 168.589 113.053C169.148 113.197 169.627 113.412 170.025 113.7C170.429 113.988 170.739 114.348 170.955 114.779C171.171 115.205 171.279 115.701 171.279 116.265C171.279 116.68 171.185 117.07 170.997 117.436C170.814 117.801 170.551 118.122 170.208 118.398C169.865 118.675 169.453 118.894 168.971 119.054C168.495 119.209 167.967 119.287 167.386 119.287ZM165.302 118.548H167.386C168.033 118.548 168.609 118.617 169.112 118.755C169.616 118.894 170.042 119.096 170.391 119.361C170.745 119.627 171.013 119.956 171.196 120.349C171.378 120.736 171.47 121.182 171.47 121.686C171.47 122.25 171.351 122.754 171.113 123.196C170.88 123.633 170.551 124.004 170.125 124.309C169.699 124.613 169.195 124.843 168.614 124.998C168.039 125.153 167.405 125.23 166.713 125.23C166.154 125.23 165.598 125.164 165.045 125.031C164.497 124.892 163.999 124.682 163.551 124.4C163.103 124.118 162.743 123.755 162.472 123.312C162.206 122.87 162.073 122.339 162.073 121.719H164.995C164.995 121.962 165.067 122.181 165.211 122.375C165.36 122.568 165.565 122.72 165.825 122.831C166.085 122.942 166.381 122.997 166.713 122.997C167.101 122.997 167.43 122.936 167.701 122.814C167.978 122.693 168.188 122.527 168.332 122.316C168.476 122.106 168.548 121.874 168.548 121.619C168.548 121.32 168.512 121.069 168.44 120.864C168.368 120.653 168.26 120.485 168.116 120.357C167.972 120.225 167.792 120.131 167.577 120.075C167.366 120.014 167.123 119.984 166.846 119.984H165.302V118.548ZM178.31 115.526L175.363 125.072H172.233L176.674 112.986H178.658L178.31 115.526ZM180.75 125.072L177.795 115.526L177.413 112.986H179.422L183.888 125.072H180.75ZM180.634 120.565V122.814H174.433V120.565H180.634ZM194.919 112.986V125.072H192.006V115.236H187.665V125.072H184.759V112.986H194.919ZM196.937 112.986H199.85V116.664C199.85 117.151 199.928 117.53 200.083 117.801C200.243 118.072 200.481 118.263 200.796 118.374C201.112 118.484 201.505 118.54 201.975 118.54C202.097 118.54 202.271 118.534 202.498 118.523C202.73 118.506 202.977 118.484 203.237 118.457C203.497 118.429 203.74 118.398 203.967 118.365C204.194 118.326 204.363 118.282 204.474 118.232V120.474C204.357 120.518 204.18 120.559 203.942 120.598C203.704 120.637 203.453 120.67 203.187 120.698C202.921 120.725 202.675 120.748 202.448 120.764C202.227 120.775 202.069 120.781 201.975 120.781C200.962 120.781 200.077 120.634 199.319 120.341C198.566 120.048 197.98 119.597 197.559 118.988C197.144 118.379 196.937 117.604 196.937 116.664V112.986ZM203.901 112.986H206.814V125.072H203.901V112.986ZM213.903 115.526L210.957 125.072H207.827L212.268 112.986H214.252L213.903 115.526ZM216.344 125.072L213.389 115.526L213.007 112.986H215.016L219.481 125.072H216.344ZM216.228 120.565V122.814H210.027V120.565H216.228ZM227.06 120.98H229.965C229.927 121.821 229.7 122.563 229.285 123.205C228.87 123.847 228.294 124.347 227.558 124.707C226.828 125.061 225.964 125.238 224.968 125.238C224.16 125.238 223.438 125.103 222.802 124.832C222.171 124.56 221.634 124.17 221.191 123.661C220.754 123.152 220.419 122.535 220.187 121.81C219.96 121.085 219.847 120.269 219.847 119.361V118.706C219.847 117.798 219.966 116.982 220.204 116.257C220.447 115.526 220.79 114.907 221.233 114.397C221.681 113.883 222.218 113.49 222.843 113.219C223.469 112.948 224.163 112.812 224.927 112.812C225.978 112.812 226.866 113 227.591 113.376C228.316 113.753 228.878 114.27 229.276 114.929C229.675 115.582 229.91 116.326 229.982 117.162H227.077C227.066 116.708 226.988 116.329 226.844 116.024C226.7 115.715 226.473 115.482 226.164 115.327C225.854 115.172 225.441 115.095 224.927 115.095C224.567 115.095 224.254 115.161 223.989 115.294C223.723 115.427 223.502 115.637 223.325 115.925C223.148 116.213 223.015 116.586 222.926 117.045C222.843 117.499 222.802 118.047 222.802 118.689V119.361C222.802 120.003 222.84 120.551 222.918 121.005C222.995 121.459 223.12 121.829 223.292 122.117C223.463 122.405 223.684 122.618 223.956 122.756C224.232 122.889 224.57 122.956 224.968 122.956C225.411 122.956 225.785 122.886 226.089 122.748C226.393 122.604 226.628 122.388 226.794 122.101C226.96 121.807 227.049 121.434 227.06 120.98ZM236.946 112.986V125.072H234.033V112.986H236.946ZM240.582 112.986V115.236H230.48V112.986H240.582ZM244.566 120.615L248.908 112.986H251.821V125.072H248.908V117.452L244.566 125.072H241.653V112.986H244.566V120.615ZM267.468 122.831V125.072H258.977V122.831H267.468ZM259.939 122.831V128.036H257.242L257.042 122.831H259.939ZM269.452 122.831L269.145 128.044H266.53V122.831H269.452ZM266.198 112.986V115.236H260.13V112.986H266.198ZM268.157 112.986V125.072H265.26V112.986H268.157ZM259.939 112.986H262.845L262.488 117.942C262.427 118.789 262.33 119.525 262.197 120.15C262.064 120.775 261.907 121.315 261.724 121.769C261.542 122.222 261.342 122.612 261.126 122.939C260.911 123.265 260.684 123.55 260.446 123.794C260.213 124.037 259.981 124.259 259.749 124.458C259.516 124.657 259.292 124.862 259.076 125.072H257.308V122.831H257.889C258.061 122.709 258.232 122.546 258.404 122.341C258.581 122.131 258.747 121.846 258.902 121.486C259.057 121.127 259.192 120.659 259.309 120.083C259.425 119.508 259.513 118.794 259.574 117.942L259.939 112.986ZM278.791 112.986V115.236H272.548V112.986H278.791ZM280.758 112.986V125.072H277.844V112.986H280.758ZM272.349 112.986H275.246L274.931 119.129C274.881 120.059 274.787 120.861 274.648 121.536C274.51 122.206 274.325 122.77 274.092 123.229C273.86 123.683 273.58 124.046 273.254 124.317C272.927 124.588 272.548 124.782 272.117 124.898C271.691 125.014 271.212 125.072 270.681 125.072H269.975V122.831L270.291 122.798C270.545 122.77 270.769 122.701 270.963 122.59C271.157 122.474 271.323 122.303 271.461 122.076C271.605 121.849 271.724 121.558 271.818 121.204C271.912 120.85 271.987 120.421 272.042 119.917C272.103 119.408 272.144 118.813 272.167 118.133L272.349 112.986ZM288.868 120.831H285.639L284.775 120.474C283.79 120.164 283.041 119.704 282.526 119.096C282.011 118.481 281.754 117.698 281.754 116.747C281.754 115.917 281.939 115.225 282.31 114.671C282.681 114.112 283.207 113.692 283.887 113.41C284.568 113.127 285.376 112.986 286.311 112.986H290.694V125.072H287.772V115.236H286.311C285.73 115.236 285.309 115.388 285.049 115.692C284.789 115.991 284.659 116.428 284.659 117.004C284.659 117.447 284.72 117.795 284.842 118.05C284.969 118.304 285.154 118.487 285.398 118.598C285.641 118.703 285.946 118.755 286.311 118.755H288.851L288.868 120.831ZM286.626 119.743L284.062 125.072H280.891L283.422 119.743H286.626ZM299.285 120.615L303.626 112.986H306.54V125.072H303.626V117.452L299.285 125.072H296.372V112.986H299.285V120.615ZM316.468 117.784V120.025H310.267V117.784H316.468ZM311.238 112.986V125.072H308.325V112.986H311.238ZM318.427 112.986V125.072H315.521V112.986H318.427ZM330.504 118.789V119.278C330.504 120.202 330.374 121.033 330.114 121.769C329.86 122.499 329.497 123.124 329.027 123.645C328.556 124.159 328 124.555 327.358 124.832C326.716 125.103 326.008 125.238 325.233 125.238C324.453 125.238 323.739 125.103 323.092 124.832C322.45 124.555 321.891 124.159 321.415 123.645C320.945 123.124 320.579 122.499 320.319 121.769C320.065 121.033 319.938 120.202 319.938 119.278V118.789C319.938 117.864 320.065 117.034 320.319 116.298C320.579 115.562 320.942 114.937 321.407 114.422C321.877 113.902 322.433 113.507 323.075 113.235C323.723 112.959 324.437 112.82 325.217 112.82C325.992 112.82 326.7 112.959 327.342 113.235C327.989 113.507 328.548 113.902 329.019 114.422C329.489 114.937 329.854 115.562 330.114 116.298C330.374 117.034 330.504 117.864 330.504 118.789ZM327.549 119.278V118.772C327.549 118.174 327.497 117.649 327.392 117.195C327.292 116.736 327.143 116.351 326.943 116.041C326.744 115.731 326.498 115.499 326.205 115.344C325.917 115.183 325.588 115.103 325.217 115.103C324.829 115.103 324.492 115.183 324.204 115.344C323.916 115.499 323.676 115.731 323.482 116.041C323.288 116.351 323.142 116.736 323.042 117.195C322.948 117.649 322.901 118.174 322.901 118.772V119.278C322.901 119.87 322.948 120.396 323.042 120.855C323.142 121.309 323.288 121.694 323.482 122.009C323.681 122.325 323.925 122.563 324.212 122.723C324.506 122.884 324.846 122.964 325.233 122.964C325.604 122.964 325.933 122.884 326.221 122.723C326.509 122.563 326.75 122.325 326.943 122.009C327.143 121.694 327.292 121.309 327.392 120.855C327.497 120.396 327.549 119.87 327.549 119.278ZM333.459 112.986H335.833L338.531 121.395L341.229 112.986H343.603L339.494 125.072H337.568L333.459 112.986ZM332.015 112.986H334.472L334.929 122.25V125.072H332.015V112.986ZM342.59 112.986H345.056V125.072H342.134V122.25L342.59 112.986ZM352.194 115.526L349.248 125.072H346.118L350.559 112.986H352.543L352.194 115.526ZM354.635 125.072L351.68 115.526L351.298 112.986H353.307L357.772 125.072H354.635ZM354.519 120.565V122.814H348.318V120.565H354.519ZM363.483 120.972H360.479V118.722H363.483C363.893 118.722 364.225 118.653 364.479 118.515C364.734 118.376 364.919 118.185 365.036 117.942C365.157 117.693 365.218 117.413 365.218 117.104C365.218 116.771 365.157 116.464 365.036 116.182C364.919 115.9 364.734 115.673 364.479 115.501C364.225 115.324 363.893 115.236 363.483 115.236H361.574V125.072H358.661V112.986H363.483C364.452 112.986 365.285 113.163 365.982 113.518C366.685 113.872 367.224 114.359 367.601 114.979C367.977 115.593 368.165 116.296 368.165 117.087C368.165 117.867 367.977 118.548 367.601 119.129C367.224 119.71 366.685 120.164 365.982 120.49C365.285 120.811 364.452 120.972 363.483 120.972ZM379.96 118.789V119.278C379.96 120.202 379.83 121.033 379.57 121.769C379.316 122.499 378.953 123.124 378.483 123.645C378.013 124.159 377.456 124.555 376.814 124.832C376.173 125.103 375.464 125.238 374.689 125.238C373.909 125.238 373.195 125.103 372.548 124.832C371.906 124.555 371.347 124.159 370.871 123.645C370.401 123.124 370.035 122.499 369.775 121.769C369.521 121.033 369.394 120.202 369.394 119.278V118.789C369.394 117.864 369.521 117.034 369.775 116.298C370.035 115.562 370.398 114.937 370.863 114.422C371.333 113.902 371.889 113.507 372.531 113.235C373.179 112.959 373.893 112.82 374.673 112.82C375.448 112.82 376.156 112.959 376.798 113.235C377.445 113.507 378.004 113.902 378.475 114.422C378.945 114.937 379.31 115.562 379.57 116.298C379.83 117.034 379.96 117.864 379.96 118.789ZM377.005 119.278V118.772C377.005 118.174 376.953 117.649 376.848 117.195C376.748 116.736 376.599 116.351 376.399 116.041C376.2 115.731 375.954 115.499 375.661 115.344C375.373 115.183 375.044 115.103 374.673 115.103C374.285 115.103 373.948 115.183 373.66 115.344C373.372 115.499 373.132 115.731 372.938 116.041C372.744 116.351 372.598 116.736 372.498 117.195C372.404 117.649 372.357 118.174 372.357 118.772V119.278C372.357 119.87 372.404 120.396 372.498 120.855C372.598 121.309 372.744 121.694 372.938 122.009C373.137 122.325 373.381 122.563 373.668 122.723C373.962 122.884 374.302 122.964 374.689 122.964C375.06 122.964 375.389 122.884 375.677 122.723C375.965 122.563 376.206 122.325 376.399 122.009C376.599 121.694 376.748 121.309 376.848 120.855C376.953 120.396 377.005 119.87 377.005 119.278ZM384.36 112.986V125.072H381.455V112.986H384.36ZM391.333 112.986L386.991 120.291H383.854L383.505 117.66H385.489L387.813 112.986H391.333ZM388.311 125.072L385.48 119.785L387.597 117.834L391.748 125.072H388.311Z" fill="white"/>
<path d="M277 81.0723L288 101H300.5L283 71.0723L277 81.0723Z" fill="white"/>
<path d="M277 81.0723L288 101H300.5L283 71.0723L277 81.0723Z" fill="white"/>
<path d="M54.7139 8.71375L101 35.5723L54.7139 58.5723V8.71375Z" fill="white"/>
<path d="M49.9619 66.4835L52.8564 65.0353L101.923 40.4835V96.0909L51.9609 124.936L2 96.0909V38.4005L49.9619 10.7101V66.4835Z" stroke="black" stroke-width="4"/>
<path d="M261.5 69L243 34.0723H251L269 68.0723L261.5 69Z" fill="white"/>
<path d="M273 68.0723L255 34.0723H263L281 68.0723H273Z" fill="#020202"/>
<path d="M242 101.072L261.5 67L269 68.0723L250 101.072H242Z" fill="white"/>
<path d="M254 101.072L273 68.0723H281L262 101.072H254Z" fill="black"/>
<path d="M461.333 141.472C461.333 144.139 462 144.672 466 144.806C470.133 144.939 470.667 144.672 470.667 141.739C470.667 138.806 470.133 138.406 466 138.406C462 138.406 461.333 138.806 461.333 141.472Z" fill="black"/>
<path d="M277 53.9277L288 34H300.5L283 63.9277L277 53.9277Z" fill="white"/>
<path d="M277 53.9277L288 34H300.5L283 63.9277L277 53.9277Z" fill="white"/>
<path d="M177.203 33.75V102H160.797L136.656 59.5312V102H120.203V33.75H136.656L160.797 76.2188V33.75H177.203ZM234.578 89.3438V102H198.203V89.3438H234.578ZM204.062 33.75V102H187.609V33.75H204.062ZM229.891 60.8438V73.0781H198.203V60.8438H229.891ZM234.719 33.75V46.4531H198.203V33.75H234.719Z" fill="white"/>
<path d="M342.25 33.75V102H325.797V33.75H342.25ZM362.781 33.75V46.4531H305.734V33.75H362.781Z" fill="white"/>
<path d="M473.125 48.0938L456.484 102H438.812L463.891 33.75H475.094L473.125 48.0938ZM486.906 102L470.219 48.0938L468.062 33.75H479.406L504.625 102H486.906ZM486.25 76.5469V89.25H451.234V76.5469H486.25Z" fill="white"/>
</svg>
